<svg width="512" height="512" viewBox="0 0 512 512" fill="none" xmlns="http://www.w3.org/2000/svg">
<path d="M256 512C397.385 512 512 397.385 512 256C512 114.615 397.385 0 256 0C114.615 0 0 114.615 0 256C0 397.385 114.615 512 256 512Z" fill="#64E1DC"/>
<path d="M512 256C512 255.366 511.98 254.736 511.976 254.103L446.685 188.812L442.28 197.43L407.851 163L304.065 292.879L174.186 163L64 323.188L252.772 511.959C253.848 511.973 254.921 512 256 512C397.385 512 512 397.385 512 256Z" fill="#00C8C8"/>
<path d="M389.34 218.5H122.67V293.5H389.34V218.5Z" fill="#515262"/>
<path d="M389.34 256.5H122.67V293.5H389.34V256.5Z" fill="#464655"/>
<path d="M446.68 188.81H397.37V323.19H446.68V188.81Z" fill="#F84F24"/>
<path d="M446.68 256.5H397.37V323.19H446.68V256.5Z" fill="#DB2B0E"/>
<path d="M407.85 163H336.5V349H407.85V163Z" fill="#FFE45C"/>
<path d="M407.85 256.5H336.5V349H407.85V256.5Z" fill="#FFBC36"/>
<path d="M113.31 188.81H64V323.19H113.31V188.81Z" fill="#F84F24"/>
<path d="M113.31 256.5H64V323.19H113.31V256.5Z" fill="#DB2B0E"/>
<path d="M174.18 163H102.83V349H174.18V163Z" fill="#FFE45C"/>
<path d="M174.18 256.5H102.83V349H174.18V256.5Z" fill="#FFBC36"/>
</svg>
