<svg width="34" height="34" viewBox="0 0 34 34" fill="none" xmlns="http://www.w3.org/2000/svg">
<rect width="34" height="34" rx="17" fill="#2B32B2"/>
<rect width="34" height="34" rx="17" fill="#2B32B2"/>
<rect width="34" height="34" rx="17" fill="#2B32B2"/>
<rect width="34" height="34" rx="17" fill="#2B32B2"/>
<path d="M16.7258 26.3226C21.723 26.3226 25.7741 22.2715 25.7741 17.2742C25.7741 12.2769 21.723 8.2258 16.7258 8.2258C11.7285 8.2258 7.67737 12.2769 7.67737 17.2742C7.67737 22.2715 11.7285 26.3226 16.7258 26.3226Z" fill="#FDBD40"/>
<path d="M16.7258 25.3865C16.5535 25.3865 16.4138 25.2468 16.4138 25.0745C16.4138 24.9022 16.5535 24.7625 16.7258 24.7625C20.8595 24.7577 24.2094 21.4078 24.2142 17.2742C24.2142 17.1019 24.3539 16.9622 24.5262 16.9622C24.6985 16.9622 24.8382 17.1019 24.8382 17.2742C24.8332 21.7524 21.2041 25.3815 16.7258 25.3865Z" fill="#FCF05A"/>
<path d="M8.92554 17.5862C8.75323 17.5862 8.61353 17.4465 8.61353 17.2742C8.61852 12.7959 12.2476 9.16683 16.7259 9.16183C16.8982 9.16183 17.0379 9.30154 17.0379 9.47385C17.0379 9.64616 16.8982 9.78586 16.7259 9.78586C12.5922 9.79066 9.24235 13.1405 9.23755 17.2742C9.23755 17.4465 9.09785 17.5862 8.92554 17.5862Z" fill="#FCF05A"/>
<path d="M16.9989 12.438C17.3436 12.438 17.6229 12.7174 17.6229 13.062C17.6229 13.4067 17.3436 13.686 16.9989 13.686C16.6542 13.686 16.3749 13.4067 16.3749 13.062C16.3749 12.7174 16.6542 12.438 16.9989 12.438Z" fill="#5F79BA"/>
<path d="M17.6228 20.2383V14.9341H15.1267V15.5581C15.1267 15.7304 15.2664 15.8702 15.4387 15.8702H16.3748V21.1744H18.8709V20.5504C18.8709 20.378 18.7312 20.2383 18.5589 20.2383H17.6228Z" fill="#5F79BA"/>
</svg>
