<svg width="512" height="351" viewBox="0 0 512 351" fill="none" xmlns="http://www.w3.org/2000/svg">
<g opacity="0.2">
<path d="M273.466 19.9354C270.787 34.9529 266.715 49.6881 261.301 63.9497C260.66 66.4584 258.4 68.2135 255.81 68.2135C253.221 68.2135 250.961 66.4584 250.32 63.9497C244.906 49.6881 240.834 34.9529 238.155 19.9354C237.318 13.1115 240.488 6.41605 246.297 2.73911C252.106 -0.937818 259.514 -0.937818 265.324 2.73911C271.133 6.41605 274.303 13.1115 273.466 19.9354Z" fill="#F0C419"/>
<path d="M29.3917 -19.7534C47.9114 -13.0223 65.7837 -4.62828 82.7898 5.32572C85.7682 6.64511 87.4576 9.83053 86.8794 13.0363C86.3011 16.2421 83.605 18.6364 80.3534 18.8319C60.9486 22.2197 41.277 23.8447 21.5793 23.6871C8.43516 22.2726 -1.12702 10.55 0.128288 -2.61028C3.5513 -15.3673 16.5901 -23.0057 29.3917 -19.7534V-19.7534Z" fill="#24AE5F"/>
<path d="M482.229 -19.7534C463.71 -13.0223 445.837 -4.62828 428.831 5.32572C425.853 6.64511 424.163 9.83053 424.742 13.0363C425.32 16.2421 428.016 18.6364 431.268 18.8319C450.672 22.2197 470.344 23.8447 490.042 23.6871C503.186 22.2726 512.748 10.55 511.493 -2.61028C508.07 -15.3673 495.031 -23.0057 482.229 -19.7534V-19.7534Z" fill="#24AE5F"/>
<path d="M29.3916 208.978C47.9141 202.236 65.7867 193.827 82.7897 183.855C85.7583 182.53 87.4391 179.35 86.8617 176.151C86.2842 172.952 83.5976 170.561 80.3533 170.357C60.9485 166.97 41.2769 165.345 21.5792 165.502C8.42795 166.908 -1.14433 178.633 0.110532 191.8C3.51782 204.58 16.5735 212.239 29.3916 208.978V208.978Z" fill="#24AE5F"/>
<path d="M482.229 208.978C463.707 202.236 445.834 193.827 428.831 183.855C425.863 182.53 424.182 179.35 424.759 176.151C425.337 172.952 428.023 170.561 431.268 170.357C450.673 166.97 470.344 165.345 490.042 165.502C503.193 166.908 512.765 178.633 511.51 191.8C508.103 204.58 495.047 212.239 482.229 208.978Z" fill="#24AE5F"/>
<path d="M175.1 334.533C179.994 315.451 183.153 295.966 184.536 276.315C185.124 273.115 183.449 269.928 180.48 268.597C177.512 267.265 174.018 268.134 172.019 270.701C158.283 284.804 145.85 300.12 134.872 316.463C128.615 328.109 132.889 342.622 144.459 349.019C156.915 353.375 170.561 346.924 175.1 334.533V334.533Z" fill="#24AE5F"/>
<path d="M336.23 334.533C331.331 315.452 328.17 295.966 326.784 276.315C326.197 273.115 327.872 269.928 330.84 268.597C333.808 267.265 337.302 268.134 339.302 270.701C353.058 284.8 365.509 300.117 376.501 316.463C382.753 328.11 378.481 342.619 366.914 349.019C354.445 353.404 340.768 346.947 336.23 334.533V334.533Z" fill="#24AE5F"/>
<path d="M434.737 248.649C421.863 239.56 408.196 231.651 393.9 225.018C391.676 223.593 388.759 223.908 386.891 225.776C385.023 227.645 384.707 230.562 386.132 232.786C392.765 247.081 400.674 260.749 409.764 273.623C413.925 279.299 421.031 282.004 427.913 280.531C434.796 279.058 440.172 273.681 441.645 266.799C443.118 259.916 440.413 252.81 434.737 248.649Z" fill="#2FA8CC"/>
<path d="M76.8841 248.649C89.7578 239.56 103.425 231.651 117.72 225.018C119.945 223.593 122.862 223.908 124.73 225.776C126.598 227.645 126.914 230.562 125.489 232.786C118.856 247.081 110.946 260.749 101.857 273.623C94.9292 281.611 82.8654 282.544 74.7919 275.715C67.963 267.641 68.8955 255.577 76.8841 248.649Z" fill="#2FA8CC"/>
<path d="M273.466 277.109C270.794 261.579 266.722 246.321 261.301 231.524C260.732 228.948 258.449 227.114 255.81 227.114C253.172 227.114 250.889 228.948 250.32 231.524C244.899 246.321 240.827 261.579 238.155 277.109C237.398 287.659 245.27 296.853 255.81 297.731C266.351 296.853 274.223 287.659 273.466 277.109Z" fill="#FF5364"/>
<path d="M73.3971 77.041C88.9281 79.7129 104.185 83.7843 118.983 89.2054C121.559 89.7746 123.393 92.058 123.393 94.6962C123.393 97.3343 121.559 99.6178 118.983 100.187C104.185 105.608 88.9281 109.68 73.3971 112.351C62.8477 113.108 53.6531 105.236 52.7759 94.6962C53.6531 84.1561 62.8477 76.284 73.3971 77.041Z" fill="#FF5364"/>
<path d="M438.224 77.041C422.693 79.7129 407.435 83.7843 392.638 89.2054C390.062 89.7746 388.228 92.058 388.228 94.6962C388.228 97.3343 390.062 99.6178 392.638 100.187C407.435 105.608 422.693 109.68 438.224 112.351C448.773 113.108 457.968 105.236 458.845 94.6962C457.968 84.1561 448.773 76.284 438.224 77.041Z" fill="#FF5364"/>
<path d="M183.786 -2.90159C192.511 9.61223 200.053 22.911 206.314 36.8225C207.64 39.0507 207.284 41.8945 205.451 43.7278C203.618 45.5612 200.774 45.9166 198.546 44.5908C184.632 38.3336 171.333 30.7915 158.822 22.0628C153.429 17.8239 150.955 10.8607 152.466 4.16965C153.977 -2.52139 159.202 -7.74652 165.893 -9.25718C172.584 -10.7678 179.547 -8.29453 183.786 -2.90159V-2.90159Z" fill="#894B9D"/>
<path d="M352.799 166.111C340.287 157.386 326.988 149.847 313.075 143.592C310.849 142.273 308.011 142.629 306.18 144.458C304.349 146.287 303.989 149.124 305.307 151.352C311.567 165.263 319.109 178.562 327.835 191.076C332.073 196.469 339.037 198.942 345.728 197.431C352.419 195.921 357.644 190.696 359.155 184.005C360.665 177.314 358.192 170.35 352.799 166.111V166.111Z" fill="#894B9D"/>
<path d="M158.822 166.111C171.334 157.386 184.633 149.847 198.546 143.592C200.772 142.273 203.61 142.629 205.441 144.458C207.272 146.287 207.631 149.124 206.314 151.352C200.053 165.263 192.511 178.562 183.786 191.076C179.547 196.469 172.584 198.942 165.893 197.431C159.202 195.921 153.977 190.696 152.466 184.005C150.955 177.314 153.429 170.35 158.822 166.111V166.111Z" fill="#894B9D"/>
<path d="M327.835 -2.90159C319.109 9.61223 311.568 22.911 305.307 36.8225C303.981 39.0507 304.336 41.8945 306.17 43.7278C308.003 45.5612 310.847 45.9166 313.075 44.5908C326.988 38.3336 340.287 30.7915 352.799 22.0628C358.192 17.8239 360.666 10.8607 359.155 4.16965C357.644 -2.52139 352.419 -7.74652 345.728 -9.25718C339.037 -10.7678 332.074 -8.29453 327.835 -2.90159V-2.90159Z" fill="#894B9D"/>
<path d="M273.466 169.457C270.787 154.439 266.715 139.704 261.301 125.443C260.66 122.934 258.4 121.179 255.81 121.179C253.221 121.179 250.961 122.934 250.32 125.443C244.906 139.704 240.834 154.439 238.155 169.457C237.318 176.281 240.488 182.976 246.297 186.653C252.106 190.33 259.514 190.33 265.324 186.653C271.133 182.976 274.303 176.281 273.466 169.457Z" fill="#F0C419"/>
<path d="M181.05 77.041C196.067 79.7193 210.802 83.7918 225.064 89.2054C227.573 89.8467 229.328 92.1068 229.328 94.6962C229.328 97.2856 227.573 99.5457 225.064 100.187C210.802 105.601 196.067 109.673 181.05 112.351C174.226 113.189 167.53 110.019 163.853 104.209C160.176 98.4002 160.176 90.9922 163.853 85.183C167.53 79.3738 174.226 76.2037 181.05 77.041Z" fill="#F0C419"/>
<path d="M330.571 77.041C315.554 79.7193 300.818 83.7918 286.557 89.2054C284.048 89.8467 282.293 92.1068 282.293 94.6962C282.293 97.2856 284.048 99.5457 286.557 100.187C300.818 105.601 315.554 109.673 330.571 112.351C337.395 113.189 344.09 110.019 347.767 104.209C351.444 98.4002 351.444 90.9922 347.767 85.183C344.09 79.3738 337.395 76.2037 330.571 77.041Z" fill="#F0C419"/>
</g>
</svg>
