<svg width="257" height="155" viewBox="0 0 257 155" fill="none" xmlns="http://www.w3.org/2000/svg">
<g opacity="0.8">
<path d="M128.5 11.5398C57.5315 11.5398 0 69.0714 0 140.04C0 185.889 24.0175 226.124 60.1529 248.866L126.646 268.516C127.264 268.525 127.88 268.54 128.5 268.54C199.468 268.54 257 211.008 257 140.04C257 69.0714 199.468 11.5398 128.5 11.5398V11.5398Z" fill="#4FABF7"/>
<path d="M159.037 20.4976C155.291 18.6326 149.921 15.4646 145.697 10.9923C134.05 -1.34115 105.165 -6.69517 91.4478 13.3263C90.5682 14.6102 89.3356 15.6078 87.9237 16.2618C81.0822 19.4319 64.4207 30.9455 80.9716 59.8576C84.9199 66.7547 87.4779 72.5335 89.0487 77.373C92.1291 73.8831 94.9089 69.7359 95.0143 66.0424C95.1234 62.2299 94.0508 59.2912 93.1891 56.9299C92.2041 54.2319 91.5532 52.4502 92.8555 50.6748C94.6844 48.1809 97.7448 48.7541 100.001 50.123C101.277 50.8972 102.041 52.3653 101.996 53.9545L101.919 56.6409C101.864 58.5873 103.402 60.2158 105.348 60.272C107.23 60.326 108.82 58.8999 108.969 57.0254C109.984 44.2272 111.91 35.3397 114.122 33.2512C115.87 31.6001 119.941 32.1151 125.091 32.7671C131.095 33.5265 138.493 34.4643 146.509 32.7372C146.462 32.9307 146.411 33.1521 146.359 33.3839L147.567 31.7134C147.567 31.7134 153.816 29.4423 159.331 25.7982C161.306 24.4937 161.154 21.5513 159.037 20.4976V20.4976Z" fill="#3C58A0"/>
<path d="M87.9237 16.2618C81.0822 19.4319 64.4207 30.9455 80.9716 59.8576C84.9199 66.7547 87.4779 72.5335 89.0487 77.373C92.1291 73.883 94.9089 69.7359 95.0143 66.0424C95.1234 62.2299 94.0508 59.2911 93.1891 56.9299C92.2041 54.2319 91.5532 52.4502 92.8555 50.6748C94.6844 48.1808 97.7443 48.7541 100.001 50.123C101.277 50.8972 102.042 52.3652 101.996 53.9544L101.919 56.6409C101.864 58.5873 103.402 60.2158 105.348 60.272C107.23 60.326 108.821 58.8999 108.969 57.0253C109.924 44.9951 111.683 36.4217 113.727 33.7012C92.534 32.6186 91.4472 13.3273 91.4472 13.3273C90.5687 14.6097 89.3356 15.6073 87.9237 16.2618V16.2618Z" fill="#2A428C"/>
<path d="M126.075 121.513C125.434 119.911 124.606 118.085 123.744 116.141L123.76 116.224C117.772 109.096 106.721 105.654 91.5403 100.926C90.9733 100.651 83.0225 98.9616 78.3451 93.1828C77.4094 92.0263 76.1527 90.0841 75.9398 88.4886C65.0854 99.0031 38.2886 129.837 49.0538 169.462C56.9689 198.596 58.6043 228.408 58.6216 247.889C72.6224 256.979 88.5029 263.416 105.553 266.491L120.854 268.307L120.849 268.313C123.381 268.461 125.931 268.54 128.5 268.54C128.603 268.54 128.706 268.536 128.81 268.536C130.261 258.39 135.492 222.548 140.701 195.555C146.83 163.799 126.075 121.513 126.075 121.513V121.513Z" fill="#3C58A0"/>
<path d="M114.991 154.614C93.2947 144.1 101.012 119.545 103.08 114.022C103.323 113.372 103.224 112.644 102.817 112.082C101.208 109.859 101.833 107.598 102.452 106.307C102.747 105.692 102.702 104.995 102.393 104.396C99.0562 103.268 95.4367 102.14 91.5403 100.926C90.9733 100.651 83.0225 98.9616 78.3451 93.1828C77.4094 92.0263 76.1527 90.0841 75.9398 88.4886C65.0854 99.0031 38.2886 129.837 49.0538 169.462C56.9689 198.596 58.6043 228.408 58.6216 247.889C72.6224 256.979 88.5029 263.416 105.553 266.491L120.854 268.307L120.849 268.313C123.381 268.461 125.931 268.54 128.5 268.54C128.603 268.54 128.706 268.536 128.81 268.536C130.261 258.39 135.492 222.548 140.701 195.555C141.557 191.119 141.888 186.476 141.824 181.773C131.169 174.213 134.577 164.106 114.991 154.614V154.614Z" fill="#2A428C"/>
<path d="M149.022 53.8108C143.593 44.7444 147.569 31.7123 147.569 31.7123C131.847 35.6229 117.89 28.6504 113.602 32.6989C110.236 35.8779 108.72 50.6444 108.224 56.8402C108.111 58.2495 107.011 59.438 105.599 59.5104C103.961 59.5938 102.632 58.2674 102.678 56.6614L102.756 53.9482C102.807 52.146 101.937 50.4089 100.395 49.4737C97.661 47.8148 94.2476 47.4959 92.2451 50.2259C89.3845 54.1254 94.4857 58.0633 94.2575 66.0204C94.1175 70.9118 88.8631 76.8013 84.834 80.6154C85.1623 80.7927 85.4508 81.0534 85.6427 81.4127C85.8436 82.181 87.6668 88.4409 94.482 91.7184C101.303 94.997 112.189 101.363 116.802 103.236C117.789 103.636 118.783 104.346 119.667 105.224C119.159 103.176 118.889 101.201 119.018 99.408C120.028 85.3526 135.932 99.3954 141.065 95.8005C148.869 90.3358 142.812 72.2965 146.915 71.3199C155.292 69.3263 154.45 62.8771 149.022 53.8108V53.8108Z" fill="#F9BA8F"/>
<path d="M102.678 56.6614L102.755 53.9482C102.807 52.146 101.936 50.4089 100.395 49.4737C97.6605 47.8148 94.2471 47.4959 92.2446 50.2258C89.384 54.1254 94.4852 58.0633 94.257 66.0204C94.117 70.9118 88.8626 76.8013 84.8335 80.6154C85.1618 80.7927 85.4503 81.0534 85.6423 81.4127C85.8431 82.181 87.6663 88.4408 94.4815 91.7184C101.303 94.997 112.188 101.363 116.801 103.236C117.789 103.636 118.782 104.346 119.666 105.224C119.158 103.176 118.888 101.201 119.017 99.408C119.523 92.3782 123.754 92.3772 128.5 93.6831C104.198 83.894 105.598 59.5109 105.598 59.5109C103.961 59.5938 102.632 58.2679 102.678 56.6614V56.6614Z" fill="#FFAA7B"/>
<path d="M123.184 110.242C122.611 107.249 119.835 103.866 117.011 102.72C112.419 100.856 101.601 94.5234 94.7232 91.2165C87.7658 87.8712 86.1666 81.2144 86.1666 81.2144C85.4008 79.6839 83.3742 79.332 82.1275 80.5048L76.0958 86.1771C75.3427 86.8857 75.0935 87.9725 75.4517 88.9428C75.4517 88.9428 77.0257 96.9853 90.0038 101.031C106.131 106.059 117.709 109.499 123.675 116.999C123.945 117.34 124.492 117.083 124.41 116.656L123.184 110.242Z" fill="#BBEA49"/>
<path d="M216.257 143.194C216.053 143.207 215.851 143.224 215.646 143.234C215.04 143.262 214.43 143.28 213.816 143.28H213.816C207.927 143.28 202.345 141.942 197.355 139.559C196.465 141.169 195.533 142.543 194.579 143.496C189.386 148.69 175.887 157.261 171.57 170.389C171.329 171.123 170.328 171.208 169.975 170.52C168.634 167.91 165.74 163.116 160.427 157.646C156.456 168.627 145.639 190.614 120.615 200.382C127.261 205.062 135.606 209.064 145.931 210.987C145.931 210.987 164.122 224.71 178.943 220.429C179.944 220.14 180.993 220.079 182.017 220.276C183.831 220.625 186.961 220.844 189.42 219.011C192.003 217.085 192.708 214.341 192.894 212.758C193 211.854 193.287 210.988 193.764 210.213C197.465 204.196 212.747 177.673 217.283 143.12C216.943 143.152 216.6 143.173 216.257 143.194V143.194Z" fill="#F9BA8F"/>
<path d="M197.353 139.56C196.463 141.17 195.531 142.543 194.577 143.497C189.384 148.691 175.885 157.262 171.568 170.39C171.327 171.124 170.326 171.208 169.973 170.521C168.632 167.911 165.739 163.117 160.426 157.647C158.096 164.088 153.405 174.316 144.877 183.645C147.101 184.83 149.8 188.299 153.157 189.313C178.327 196.918 178.72 195.158 183.572 190.306C188.423 185.455 206.663 158.838 206.663 142.606C203.396 141.987 200.272 140.954 197.353 139.56V139.56Z" fill="#FCAD6D"/>
<path d="M155.727 153.22C151.913 163.992 141.023 186.71 114.991 195.945C116.826 197.565 118.827 199.157 121.018 200.674C146.547 191.062 157.118 168.405 160.745 157.966C159.272 156.43 157.605 154.836 155.727 153.22Z" fill="#DAE2FE"/>
<path d="M139.394 142.244C137.634 141.322 136.271 139.789 135.597 137.921L133.96 133.382C133.314 131.591 132.545 129.841 131.581 128.199C125.995 118.679 115.469 112.409 103.523 112.906C87.4012 113.578 74.356 126.799 73.8856 142.928C73.5064 155.941 81.155 167.213 92.2459 172.159C96.3018 173.967 99.7341 176.914 102.079 180.685C104.758 184.996 109.095 190.854 115.444 196.351C141.486 187.039 152.322 164.219 156.082 153.529C151.755 149.759 146.283 145.854 139.394 142.244V142.244Z" fill="#4F71B6"/>
<path d="M114.991 154.614C93.2944 144.1 101.012 119.545 103.08 114.022C103.213 113.667 103.24 113.29 103.174 112.928C87.214 113.775 74.3524 126.915 73.8856 142.927C73.5064 155.94 81.155 167.212 92.2459 172.158C96.3018 173.966 99.7341 176.913 102.079 180.684C104.758 184.995 109.095 190.853 115.444 196.35C125.881 192.618 133.87 186.715 139.946 180.294C131.51 172.925 133.326 163.5 114.991 154.614V154.614Z" fill="#3C58A0"/>
<path d="M247.197 109.325C249.09 90.8638 235.658 74.3634 217.196 72.4709C198.735 70.5783 182.234 84.0102 180.342 102.472C178.449 120.934 191.881 137.434 210.343 139.327C228.805 141.219 245.305 127.787 247.197 109.325Z" fill="#6289CC"/>
<path d="M233.106 133.485C232.366 132.303 232.181 130.959 232.176 129.933C232.172 129.033 231.471 128.286 230.574 128.209C219.421 127.246 220.453 116.997 220.952 114.182C221.036 113.709 220.919 113.226 220.635 112.839L209.316 97.4201C209.024 97.0226 208.574 96.7787 208.083 96.7268C197.433 95.5975 197.457 87.3641 198.035 83.626C198.181 82.6798 197.524 81.8039 196.582 81.6361C194.87 81.3308 193.723 80.5918 192.96 79.6598C185.201 85.8137 180.219 95.3164 180.219 105.989C180.219 124.543 195.26 139.585 213.815 139.585C220.996 139.584 227.645 137.323 233.106 133.485V133.485Z" fill="#4F71B6"/>
<path d="M213.815 144.329C192.673 144.329 175.474 127.129 175.474 105.988C175.474 84.847 192.673 67.6474 213.815 67.6474C234.956 67.6474 252.155 84.847 252.155 105.988C252.155 127.129 234.956 144.329 213.815 144.329ZM213.815 77.1375C197.907 77.1375 184.964 90.0799 184.964 105.988C184.964 121.897 197.906 134.839 213.815 134.839C229.723 134.839 242.665 121.897 242.665 105.988C242.665 90.0799 229.722 77.1375 213.815 77.1375Z" fill="#4F71B6"/>
<path d="M237.508 136.099C237.496 136.097 237.486 136.091 237.474 136.09C232.926 135.365 232.186 132.002 232.177 129.933C232.175 129.435 231.954 128.989 231.609 128.672C226.703 132.529 220.526 134.838 213.815 134.838C197.907 134.838 184.965 121.896 184.965 105.988C184.965 96.1031 189.964 87.3661 197.564 82.1653C197.308 81.8994 196.973 81.7048 196.583 81.635C192.222 80.8577 191.501 77.277 191.545 74.8072C181.826 81.7693 175.475 93.1471 175.475 105.988C175.475 127.129 192.674 144.329 213.815 144.329C222.753 144.329 230.981 141.246 237.508 136.099V136.099Z" fill="#3C58A0"/>
<path d="M223.493 109.878C225.673 104.537 223.11 98.4397 217.769 96.2595C212.428 94.0792 206.331 96.6415 204.151 101.983C201.971 107.324 204.533 113.421 209.874 115.601C215.215 117.781 221.312 115.219 223.493 109.878Z" fill="#DAE2FE"/>
<path d="M0 140.04C0 176.917 15.5396 210.158 40.4221 233.59C44.51 222.311 39.7439 204.567 32.6439 179.55C18.9761 131.394 45.5925 94.2659 57.4618 70.3889C64.5618 56.1064 55.1886 46.5061 46.5093 41.096C18.0971 64.6672 0 100.239 0 140.04V140.04Z" fill="#73C3F9"/>
<path d="M90.0033 101.031C94.5826 102.458 98.7943 103.758 102.616 105.059C98.585 98.7775 104.879 96.5138 104.879 96.5138C101.303 94.5853 97.6551 92.6258 94.7232 91.2165C87.7658 87.8712 86.1666 81.2144 86.1666 81.2144C85.4008 79.6839 83.3742 79.332 82.1275 80.5048L76.0958 86.1771C75.3427 86.8857 75.0935 87.9725 75.4517 88.9428C75.4517 88.9423 77.0252 96.9848 90.0033 101.031Z" fill="#9FD332"/>
<path d="M171.022 18.7521C171.466 23.8523 171.024 29.5645 167.736 32.8531C155.161 45.4283 162.655 67.6474 175.473 67.6474C186.175 67.6474 201.838 50.3365 227.272 57.8477C212.549 40.1739 193.172 26.5177 171.022 18.7521Z" fill="#73C3F9"/>
</g>
</svg>
